<svg xmlns="http://www.w3.org/2000/svg" width="240" height="240" viewBox="0 0 240 240"><g fill="none" stroke="#895e2b" opacity=".035"><path d="M0 15 240 17M0 34 240 32M0 63 240 67M0 95 240 91M0 133 240 137M0 174 240 171M0 208 240 212M15 0l3 240M54 0l-2 240M102 0l5 240M157 0l-4 240M212 0l7 240"/><path d="m17 56 12-2m139 58 24-3m-85 87 32 3m72-162 17 1" stroke-width="3"/></g><g fill="#916127" opacity=".035"><ellipse cx="39" cy="163" rx="28" ry="16"/><ellipse cx="209" cy="45" rx="15" ry="25"/><circle cx="57" cy="170" r="18"/></g></svg>
